PathFileType	4	(X/Y/Z)	G:/My Drive/Project Folder - EPSRC SCI-FES/EPSRC-SCI-FES/Technical/Trial Tests/04122019 - Marker Volunteer01/Rosti Data/New Session 101.trc	
DataRate	CameraRate	NumFrames	NumMarkers	Units	OrigDataRate	OrigDataStartFrame	OrigNumFrames	
100.00	100.00	13	14	mm	100.00	1	337	
Frame#	Time	C7			PX			T8			IJ			SC			AC			AI			TS			AA			GH			LE			ME			US			RS			
		X1	Y1	Z1	X2	Y2	Z2	X3	Y3	Z3	X4	Y4	Z4	X5	Y5	Z5	X6	Y6	Z6	X7	Y7	Z7	X8	Y8	Z8	X9	Y9	Z9	X10	Y10	Z10	X11	Y11	Z11	X12	Y12	Z12	X13	Y13	Z13	X14	Y14	Z14	

1	0.000	672.91626	-15.91731	1540.22778	452.57864	-35.60072	1289.17126	752.70129	-6.88218	1325.70654	516.15015	-37.22597	1431.96851	519.68188	-12.05876	1440.31140	587.19244	131.55365	1485.62805	716.68414	70.61956	1463.92346	749.28088	75.41436	1345.90491	656.61847	183.68803	1443.60144	617.35236	194.56064	1457.92200	546.22241	283.91650	1184.42517	515.98969	201.49901	1146.07458	455.60950	371.66043	935.58698	400.11206	405.68365	982.08368 
2	0.010	672.79547	-15.91321	1540.24890	452.43579	-35.56488	1289.16846	752.61206	-6.84304	1325.66785	516.03296	-37.22178	1431.98755	519.58636	-12.03407	1440.30579	587.05341	131.57628	1485.63611	716.55719	70.64239	1463.94275	749.15002	75.41634	1345.89417	656.47925	183.73222	1443.60974	617.21967	194.59537	1457.91589	545.99707	283.82782	1184.46045	515.64172	201.46098	1146.15173	455.48572	371.64706	935.55273	400.02090	405.70868	982.06519 
3	0.020	672.66895	-15.90184	1540.25940	452.29828	-35.52876	1289.16223	752.51074	-6.82255	1325.62976	515.91052	-37.21356	1431.99390	519.48523	-12.00629	1440.29944	586.91406	131.60219	1485.63879	716.42529	70.66354	1463.95398	749.02393	75.42216	1345.88708	656.34839	183.76849	1443.61438	617.08710	194.63022	1457.91052	545.82269	283.80948	1184.47449	515.27991	201.42407	1146.21375	455.37772	371.64868	935.52277	399.93195	405.73059	982.05084 
4	0.030	672.53650	-15.88275	1540.25916	452.16620	-35.49310	1289.15295	752.38635	-6.80301	1325.60938	515.78271	-37.20137	1431.98779	519.37848	-11.97563	1440.29236	586.77460	131.63118	1485.63660	716.28534	70.69003	1463.95630	748.90222	75.43181	1345.88354	656.22675	183.79672	1443.61414	616.95471	194.66537	1457.90564	545.68976	283.84402	1184.47253	514.90521	201.38835	1146.26050	455.28500	371.66483	935.49683	399.84531	405.75415	982.03754 
5	0.040	672.39783	-15.85574	1540.24854	452.03928	-35.45919	1289.14148	752.23572	-6.77164	1325.60852	515.64935	-37.18535	1431.96973	519.26630	-11.94256	1440.28479	586.63501	131.66284	1485.63000	716.13959	70.72572	1463.95190	748.78436	75.44520	1345.88354	656.11310	183.81950	1443.60730	616.82251	194.70093	1457.90051	545.58356	283.90332	1184.46252	514.52057	201.35408	1146.29272	455.20642	371.69431	935.47443	399.75937	405.78381	982.02136 
6	0.050	672.25269	-15.82151	1540.22913	451.91666	-35.42801	1289.12891	752.07373	-6.73202	1325.61719	515.51038	-37.16564	1431.94055	519.14880	-11.90800	1440.27661	586.49542	131.69647	1485.62024	715.99493	70.76859	1463.94482	748.66895	75.46225	1345.88660	656.00201	183.84192	1443.59473	616.68951	194.73636	1457.89429	545.48907	283.96228	1184.45093	514.13129	201.32176	1146.31067	455.14008	371.73486	935.45514	399.67139	405.81912	981.99994 
7	0.060	672.10089	-15.78208	1540.20410	451.79691	-35.40005	1289.11658	751.92188	-6.69797	1325.62598	515.36560	-37.14230	1431.90173	519.02612	-11.87330	1440.26831	586.35577	131.73112	1485.60889	715.85168	70.81455	1463.93945	748.55432	75.48297	1345.89246	655.88831	183.86691	1443.58191	616.55310	194.77002	1457.88574	545.39502	284.00815	1184.44250	513.74506	201.29231	1146.31543	455.08362	371.78342	935.43854	399.57999	405.85544	981.97443 
8	0.070	671.94287	-15.74034	1540.17822	451.67868	-35.37557	1289.10413	751.78949	-6.67880	1325.62927	515.21527	-37.11549	1431.85535	518.89838	-11.84014	1440.26001	586.21600	131.76566	1485.59705	715.70514	70.85425	1463.94055	748.43829	75.50748	1345.90027	655.77069	183.89510	1443.57593	616.40869	194.79872	1457.87280	545.29730	284.04007	1184.43994	513.37079	201.26698	1146.30811	455.03448	371.83658	935.42444	399.48557	405.88751	981.94940 
9	0.080	671.77966	-15.69912	1540.15588	451.56104	-35.35458	1289.09094	751.67291	-6.66777	1325.62756	515.05994	-37.08561	1431.80420	518.76550	-11.81026	1440.25195	586.07587	131.79910	1485.58582	715.55347	70.88354	1463.94897	748.31866	75.53602	1345.90942	655.64984	183.92606	1443.58032	616.25049	194.81813	1457.85254	545.19702	284.06259	1184.44067	513.01617	201.24733	1146.29041	454.98993	371.89145	935.41284	399.38962	405.91403	981.92969 
10	0.090	671.61249	-15.65983	1540.13916	451.44357	-35.33694	1289.07593	751.56140	-6.65437	1325.62500	514.90070	-37.05355	1431.75195	518.62769	-11.78515	1440.24414	585.93481	131.83095	1485.57556	715.39728	70.90949	1463.95679	748.19336	75.56890	1345.91882	655.52533	183.95775	1443.59094	616.07324	194.82375	1457.82214	545.09875	284.08395	1184.43811	512.68719	201.23494	1146.26477	454.94702	371.94614	935.40363	399.29440	405.93808	981.91644 
11	0.100	671.44263	-15.62243	1540.12781	451.32635	-35.32249	1289.05835	751.44305	-6.63827	1325.62500	514.73901	-37.02079	1431.70178	518.48486	-11.76588	1440.23657	585.79199	131.86090	1485.56628	715.23798	70.93996	1463.95520	748.06091	75.60630	1345.92798	655.39648	183.98608	1443.59802	615.87488	194.81306	1457.78027	545.00659	284.11453	1184.42712	512.38800	201.23109	1146.23376	454.90265	372.00027	935.39679	399.20032	405.96530	981.90674 
12	0.110	671.27185	-15.58657	1540.12146	451.20953	-35.31120	1289.03809	751.31805	-6.62576	1325.62781	514.57678	-36.98931	1431.65662	518.33734	-11.75294	1440.22925	585.64618	131.88875	1485.55798	715.08057	70.97723	1463.94690	747.92072	75.64796	1345.93665	655.26367	184.00790	1443.59570	615.65942	194.78802	1457.72974	544.92059	284.16022	1184.40686	512.12079	201.23654	1146.20068	454.85376	372.05487	935.39215	399.10593	406.00061	981.89789 
13	0.120	671.10181	-15.55256	1540.12146	451.09286	-35.30319	1289.01501	751.19751	-6.61525	1325.63342	514.41583	-36.96123	1431.61853	518.18536	-11.74619	1440.22217	585.49628	131.91417	1485.55090	714.93018	71.01577	1463.94250	747.77307	75.69298	1345.94507	655.12817	184.02328	1443.58630	615.43829	194.75645	1457.67773	544.83478	284.21652	1184.38208	511.88547	201.25133	1146.16809	454.79785	372.11163	935.38983	399.01062	406.04874	981.88953 
